HIERARCHY
ROOT Hips
{
     OFFSET 1.88212 96.90440 -13.34250
     CHANNELS 6 Xposition Yposition Zposition Zrotation Xrotation Yrotation
     JOINT Spine
     {
          OFFSET 0.00000 11.89050 0.00000
          CHANNELS 3 Zrotation Xrotation Yrotation
          JOINT Spine1
          {
               OFFSET -0.00000 25.65740 0.12766
               CHANNELS 3 Zrotation Xrotation Yrotation
               JOINT HEad
               {
                    OFFSET 0.00000 8.73416 0.01134
                    CHANNELS 3 Zrotation Xrotation Yrotation
                    End Site
                    {
                         OFFSET -0.29000 12.77420 2.51395
                    }
               }
               JOINT LeftShoulder1
               {
                    OFFSET 8.99000 -0.36225 -0.22000
                    CHANNELS 3 Zrotation Xrotation Yrotation
                    JOINT LeftArm
                    {
                         OFFSET 10.28270 -0.00338 0.32212
                         CHANNELS 3 Zrotation Xrotation Yrotation
                         JOINT LeftForeArm
                         {
                              OFFSET 32.76690 0.09914 -1.42434
                              CHANNELS 3 Zrotation Xrotation Yrotation
                              JOINT LeftHand
                              {
                                   OFFSET 27.56430 0.08536 1.02216
                                   CHANNELS 3 Zrotation Xrotation Yrotation
                                   End Site
                                   {
                                        OFFSET 16.74430 -0.60000 1.50291
                                   }
                              }
                         }
                    }
               }
               JOINT RightShoulder
               {
                    OFFSET -8.99000 -0.36225 -0.22000
                    CHANNELS 3 Zrotation Xrotation Yrotation
                    JOINT RightArm
                    {
                         OFFSET -10.28270 -0.00338 0.32212
                         CHANNELS 3 Zrotation Xrotation Yrotation
                         JOINT RightForeArm
                         {
                              OFFSET -32.89710 0.09914 -1.42434
                              CHANNELS 3 Zrotation Xrotation Yrotation
                              JOINT RightHand
                              {
                                   OFFSET -27.49210 0.08536 1.02216
                                   CHANNELS 3 Zrotation Xrotation Yrotation
                                   End Site
                                   {
                                        OFFSET -16.63120 -0.60000 1.50291
                                   }
                              }
                         }
                    }
               }
          }
     }
     JOINT LeftUpLeg
     {
          OFFSET 8.94580 -8.66707 0.10165
          CHANNELS 3 Zrotation Xrotation Yrotation
          JOINT LeftLeg
          {
               OFFSET 0.00000 -44.42270 1.37270
               CHANNELS 3 Zrotation Xrotation Yrotation
               JOINT LeftFoot
               {
                    OFFSET -0.25355 -42.09240 -1.46059
                    CHANNELS 3 Zrotation Xrotation Yrotation
                    JOINT LeftToes
                    {
                         OFFSET -0.04000 -4.41509 8.49910
                         CHANNELS 3 Zrotation Xrotation Yrotation
                         End Site
                         {
                              OFFSET 0.08000 -0.04745 9.77979
                         }
                    }
               }
          }
     }
     JOINT RightUpLeg
     {
          OFFSET -8.94580 -8.66707 0.10165
          CHANNELS 3 Zrotation Xrotation Yrotation
          JOINT RightLeg
          {
               OFFSET 0.00000 -44.42270 1.37270
               CHANNELS 3 Zrotation Xrotation Yrotation
               JOINT RightFoot
               {
                    OFFSET 0.25355 -42.09240 -1.46059
                    CHANNELS 3 Zrotation Xrotation Yrotation
                    JOINT RightToes
                    {
                         OFFSET 0.04000 -4.41509 8.49910
                         CHANNELS 3 Zrotation Xrotation Yrotation
                         End Site
                         {
                              OFFSET -0.08000 -0.13745 9.77979
                         }
                    }
               }
          }
     }
}
MOTION
Frames: 6
Frame Time: 0.01667
16.10160 60.91510 -178.50529 -4.94698 -17.65764 -37.15470 3.11483 14.14115 4.15180 -0.00654 0.01044 -0.00185 -28.81937 30.94721 33.12706 -3.88446 10.06486 1.79416 -93.14213 -31.37663 -48.87878 9.00628 33.90559 -126.05356 36.78746 2.99067 -18.06772 29.93607 11.79719 0.35864 19.92935 25.35852 61.15715 12.49801 22.36520 100.16220 -38.41753 4.97603 18.19132 40.42452 -36.85356 23.68393 6.23624 64.91390 -13.35015 -22.28728 0.00047 -0.00489 -9.29003 25.98612 5.69944 -31.46625 -24.43384 -3.01037 151.22696 70.13428 -131.73892 9.00923 0.00058 -0.00333 -20.98361 -62.70747 -7.26713 
15.58618 60.16816 -180.42737 -4.97397 -18.77277 -37.72315 3.04672 15.05134 3.63892 -0.00693 0.01031 -0.00093 -30.85010 31.72776 34.39862 -3.72300 10.20038 1.86390 -93.44923 -30.85015 -48.75328 8.99769 33.49977 -126.71538 36.92715 3.55307 -17.38248 30.04809 11.88991 0.21882 19.30048 25.57278 61.76173 12.38863 21.64771 100.94333 -38.08854 4.91248 17.61048 37.94999 -36.73388 26.64836 18.91833 62.73896 -25.61637 -23.56906 -0.00368 0.00085 -9.11986 25.89678 5.90435 -31.51669 -25.40207 -4.83814 158.33220 69.30376 -139.85893 8.60889 -0.00011 -0.00019 -21.34563 -63.30263 -7.07419 
15.14115 59.66397 -182.24577 -5.01097 -19.81216 -38.27330 2.96255 15.93945 3.14050 -0.00677 0.01004 -0.00014 -32.67054 32.28021 35.59739 -3.49463 10.22043 1.92225 -93.68969 -30.45677 -48.65173 8.95738 33.04657 -127.23685 37.05466 4.01421 -16.83052 30.19707 11.90428 0.21030 18.78666 25.71414 62.40436 12.42729 21.03152 101.39890 -37.93640 4.82129 17.23244 34.68225 -36.44385 27.87571 28.04948 59.48933 -33.62323 -25.15403 -0.00845 0.00274 -9.02558 25.60468 6.21084 -31.06503 -25.14839 -6.13793 162.34874 69.62790 -145.25002 8.35726 -0.00192 0.00108 -21.37209 -63.60420 -6.46777 
14.73614 59.43332 -183.92175 -5.07671 -20.77957 -38.79673 2.88938 16.80614 2.64346 -0.00604 0.00972 0.00044 -34.27180 32.62560 36.71451 -3.22189 10.15433 1.97343 -93.87243 -30.20821 -48.54777 8.91620 32.56888 -127.65491 37.28512 4.39411 -16.29202 30.40802 11.85719 0.28667 18.34777 25.81204 63.05234 12.57965 20.52187 101.55850 -37.83231 4.68474 16.80690 30.98306 -35.83719 27.52391 34.01288 55.97369 -37.92471 -27.09443 -0.01392 0.00344 -8.95040 25.28463 6.58678 -30.25455 -23.98168 -6.83110 164.26595 70.84037 -148.68816 8.28366 -0.00420 0.00121 -21.16652 -63.75846 -5.49394 
14.33904 59.48109 -185.43280 -5.19108 -21.68418 -39.28553 2.85459 17.65355 2.13188 -0.00480 0.00931 0.00076 -35.65245 32.78906 37.74873 -2.93242 10.03734 2.02948 -93.99455 -30.09550 -48.40887 8.90736 32.08821 -128.03474 37.51111 4.66532 -15.84794 30.69742 11.77433 0.40063 17.95100 25.88987 63.66991 12.80457 20.12563 101.48315 -37.86846 4.51109 16.59348 27.15221 -34.76173 25.79978 37.53272 52.67919 -39.36125 -29.15788 -0.01698 0.00325 -9.03094 24.99224 7.13789 -29.24755 -22.16174 -6.89115 164.30589 72.61887 -150.23181 8.42477 -0.00610 0.00074 -20.87147 -63.85585 -4.30048 
13.94631 59.83132 -186.76874 -5.35053 -22.56065 -39.73359 2.87261 18.48066 1.58956 -0.00213 0.00815 0.00045 -36.82637 32.79224 38.71322 -2.54361 9.87102 2.08370 -94.10719 -30.11657 -48.13478 8.98094 31.60860 -128.50890 37.80582 4.92250 -15.49985 31.15965 11.63108 0.48432 17.51808 25.99305 64.19794 13.11120 19.84792 101.23725 -38.10094 4.20947 16.51687 23.72063 -33.10391 23.12527 37.56938 51.23906 -38.36611 -29.66877 -0.01190 -0.00004 -9.65554 24.12071 8.45085 -28.48247 -20.93316 -6.91593 164.54779 73.75665 -151.84761 8.55144 -0.00545 -0.00089 -20.48929 -63.90385 -2.88846 
